<svg xmlns="http://www.w3.org/2000/svg" viewBox="0 0 64 80"><path d="M30.9 2.2c-6.4.2-12.6 2.5-17.6 6.6l-1.4-1.7C17.6 2.5 24.7 0 32 0s14.4 2.5 20.1 7.1l-1.4 1.7c-5-4-11.2-6.3-17.6-6.6V48h-2.2V2.2zm28.9 13.9C62.5 20.9 64 26.4 64 32c0 17.6-14.4 32-32 32S0 49.6 0 32c0-5.6 1.5-11 4.2-15.9l1.9 1.1C3.5 21.7 2.2 26.8 2.2 32c0 16.4 13.4 29.8 29.8 29.8S61.8 48.4 61.8 32c0-5.2-1.4-10.3-3.9-14.8l1.9-1.1zM5.1 78.8s0 .1 0 0l.3.2-.4.4c-.2.1-.3.2-.5.3-.2.1-.4.1-.6.2-.4.1-.6.1-.9.1-.4 0-.9-.1-1.2-.2-.4-.2-.7-.4-1-.7-.3-.3-.5-.6-.6-1-.1-.4-.2-.9-.2-1.4 0-.5.1-.9.2-1.3.2-.4.4-.7.6-1 .3-.3.6-.5 1-.7.4-.2.8-.2 1.3-.2.4 0 .8.1 1.2.2.3.1.6.3.9.6l-.1.2-.1.1s-.1 0-.2-.1-.2-.1-.3-.2c-.1-.1-.3-.2-.5-.2-.2-.1-.5-.1-.8-.1-.4 0-.7.1-1.1.2-.3.1-.6.3-.8.6-.2.2-.4.6-.5.9-.1.4-.2.8-.2 1.2 0 .5.1.9.2 1.2.1.4.3.7.5.9.2.2.5.4.8.6.3.1.7.2 1 .2h.6c.2 0 .3-.1.5-.1.2-.1.3-.1.4-.2.1-.4.2-.5.5-.7-.1.1-.1.1 0 0-.1 0-.1 0 0 0zm6.5 1.1h-.4-.1s0-.1-.1-.1l-.8-1.9h-3l-.8 1.9s0 .1-.1.1h-.4l2.6-6.4H9l2.6 6.4zm-1.4-2.3l-1.3-3.2c0-.1-.1-.2-.1-.4 0 .1 0 .1-.1.2 0 .1 0 .1-.1.2l-1.3 3.2h2.9zm4-4.1c.8 0 1.3.2 1.7.5.4.3.6.8.6 1.4 0 .3-.1.5-.2.8-.1.2-.3.4-.5.6-.2.2-.4.3-.7.4-.3.1-.6.1-1 .1H13v2.6h-.5v-6.4h1.7zm0 3.5c.3 0 .5 0 .8-.1l.6-.3c.2-.1.3-.3.4-.5.1-.2.1-.4.1-.6 0-.5-.2-.9-.5-1.1-.3-.3-.8-.4-1.4-.4H13v3h1.2zm3.6 2.9v-6.4h.5v6.4h-.5zm6.5-6H22v6h-.5v-6h-2.3v-.4h5v.4zm5 6h-.4-.1s0-.1-.1-.1l-.7-1.9h-3.2l-.8 1.9s0 .1-.1.1h-.5l2.6-6.4h.5l2.8 6.4zm-1.4-2.3l-1.3-3.2c0-.1-.1-.2-.1-.4 0 .1 0 .1-.1.2 0 .1 0 .1-.1.2L25 77.6h2.9zm5.8 1.9v.4h-3.5v-6.4h.5v6h3zm7.4-2.8c0 .5-.1.9-.2 1.3-.2.4-.4.7-.7 1-.3.3-.6.5-1 .7s-.9.3-1.4.3-.9-.1-1.3-.3c-.4-.2-.8-.4-1-.7-.3-.3-.5-.6-.7-1-.2-.4-.2-.8-.2-1.3s.1-.9.2-1.3c.2-.4.4-.7.7-1 .3-.3.6-.5 1-.7.4-.2.9-.3 1.3-.3s.9.1 1.3.3c.4.2.8.4 1 .7.3.3.5.6.7 1 .3.4.3.8.3 1.3zm-1.3 0c0-.3 0-.6-.1-.9-.1-.3-.2-.5-.4-.7-.2-.2-.4-.3-.6-.4-.2-.1-.5-.1-.8-.1s-.6 0-.8.1c-.2.1-.4.2-.6.4-.2.2-.3.4-.4.7-.1.3-.1.6-.1.9 0 .3 0 .6.1.9.1.3.2.5.4.7.2.2.4.3.6.4.2.1.5.1.8.1s.6 0 .8-.1c.2-.1.4-.2.6-.4.2-.2.3-.4.4-.7 0-.3.1-.6.1-.9zm7.6-3.2v6.4h-.7c-.1 0-.2 0-.3-.1-.1 0-.1-.1-.2-.2L43 75.5v4.3h-1.2v-6.4H42.7s.1 0 .1.1.1.1.1.1l3.2 4.1v-.3-4h1.3zm5.8 1.1h-1.9V80H50v-5.4h-1.9v-1.1h5.1v1.1zm5.5 5.3h-1c-.1 0-.2 0-.3-.1l-.2-.2-.4-1.2h-2.6l-.4 1.2c0 .1-.1.1-.2.2s-.2.1-.3.1h-1l2.5-6.4h1.4l2.5 6.4zm-2.2-2.4l-.7-2c0-.1-.1-.2-.1-.4 0-.1-.1-.3-.1-.5 0 .2-.1.3-.1.5 0 .1-.1.3-.1.4l-.7 2h1.8zm5-4c.4 0 .8.1 1.1.2.3.1.6.2.8.4.2.2.4.4.5.7.1.3.1.5.1.8 0 .3-.1.6-.2.9-.1.3-.3.5-.5.7-.2.2-.5.3-.8.4-.3.1-.7.2-1.1.2h-.8V80h-1.3v-6.4h2.2zm0 3.2c.4 0 .7-.1.9-.3.2-.2.3-.5.3-.8 0-.2 0-.3-.1-.4 0-.1-.1-.2-.2-.3-.1-.1-.2-.2-.4-.2s-.3-.1-.5-.1h-.8v2.2h.8z" fill="#8c8c8c"/></svg>